<svg xmlns="http://www.w3.org/2000/svg" width="234.976" height="86.539" viewBox="0 0 234.976 86.539"><defs><style>.a,.e{fill:#c1d632;}.b{fill:#dbc9fb;}.c,.d{fill:#1f9bb2;}.d{stroke:#1f9bb2;}.d,.e{font-size:37px;font-family:VarelaRound-Regular, Varela Round;letter-spacing:-0.03em;}.e{stroke:#c1d632;}</style></defs><g transform="translate(-170.024 -133.367)"><g transform="translate(170.024 133.367)"><ellipse class="a" cx="8" cy="8.5" rx="8" ry="8.5" transform="translate(72.976 6.633)"/><circle class="a" cx="4.5" cy="4.5" r="4.5" transform="translate(3.976 36.633)"/><ellipse class="a" cx="12" cy="11.5" rx="12" ry="11.5" transform="translate(37.976 30.633)"/><ellipse class="b" cx="8" cy="7.5" rx="8" ry="7.5" transform="translate(69.976 70.633)"/><ellipse class="b" cx="5.5" cy="5" rx="5.5" ry="5" transform="translate(32.976 62.633)"/><circle class="b" cx="3" cy="3" r="3" transform="translate(25.976 13.633)"/><path class="c" d="M84.182,38.431a8.263,8.263,0,0,0-8.138,6.9H58.749A15.173,15.173,0,0,0,50.91,33.382l2.159-4.977A8.248,8.248,0,0,0,62.4,24.18a1.354,1.354,0,1,0-2.406-1.242,5.543,5.543,0,1,1,0-5.076A1.354,1.354,0,1,0,62.4,16.619a8.25,8.25,0,1,0-11.814,10.7L48.426,32.3a15.1,15.1,0,0,0-13.167,1.782l-12.886-16a10.659,10.659,0,1,0-2.107,1.7l12.887,16a15.124,15.124,0,0,0-1.721,19.827l-10.41,9.136a12.577,12.577,0,1,0,1.786,2.036l10.414-9.14A15.2,15.2,0,0,0,40.2,61.427a1.354,1.354,0,0,0,.618-2.637,12.441,12.441,0,1,1,5.7,0,1.354,1.354,0,0,0,.618,2.637,15.12,15.12,0,0,0,4.935-2.151l6.477,8.043a5.661,5.661,0,1,0,2.108-1.7l-6.473-8.038a15.137,15.137,0,0,0,4.571-9.545H76.044a8.251,8.251,0,1,0,8.138-9.606ZM14.676,18.662a7.977,7.977,0,1,1,7.977-7.977,7.986,7.986,0,0,1-7.977,7.977ZM12.546,83.831a9.838,9.838,0,1,1,9.838-9.838A9.85,9.85,0,0,1,12.546,83.831Zm50.5-16.036a2.955,2.955,0,1,1-2.955,2.955A2.958,2.958,0,0,1,63.046,67.795Zm21.136-15.57a5.543,5.543,0,1,1,5.543-5.543A5.55,5.55,0,0,1,84.182,52.225Z" transform="translate(92.434 86.539) rotate(180)"/></g><g transform="translate(251.678 157.245)"><text class="d" transform="translate(0.322 33.755)"><tspan x="0" y="0">Time</tspan></text><text class="e" transform="translate(88.322 33.755)"><tspan x="0" y="0">Lab</tspan></text></g></g></svg>