<svg xmlns="http://www.w3.org/2000/svg" width="213.976" height="78.402" viewBox="0 0 213.976 78.402"><defs><style>.a,.e{fill:#c1d632;}.b{fill:#dbc9fb;}.c,.d{fill:#1f9bb2;}.d{stroke:#1f9bb2;}.d,.e{font-size:34px;font-family:VarelaRound-Regular, Varela Round;letter-spacing:-0.03em;}.e{stroke:#c1d632;}</style></defs><g transform="translate(-170.024 -133.367)"><g transform="translate(170.024 133.367)"><ellipse class="a" cx="7.5" cy="8" rx="7.5" ry="8" transform="translate(65.976 5.633)"/><circle class="a" cx="4" cy="4" r="4" transform="translate(3.976 33.633)"/><ellipse class="a" cx="11" cy="10.5" rx="11" ry="10.5" transform="translate(33.976 27.633)"/><ellipse class="b" cx="7.5" cy="7" rx="7.5" ry="7" transform="translate(62.976 63.633)"/><ellipse class="b" cx="5" cy="4.5" rx="5" ry="4.5" transform="translate(29.976 56.633)"/><circle class="b" cx="2.5" cy="2.5" r="2.5" transform="translate(23.976 12.633)"/><path class="c" d="M76.267,34.817a7.486,7.486,0,0,0-7.373,6.249H53.225a13.746,13.746,0,0,0-7.1-10.823l1.956-4.509a7.472,7.472,0,0,0,8.454-3.828,1.227,1.227,0,1,0-2.18-1.126,5.022,5.022,0,1,1,0-4.6,1.227,1.227,0,1,0,2.18-1.126,7.474,7.474,0,1,0-10.7,9.7l-1.958,4.512a13.684,13.684,0,0,0-11.929,1.614l-11.674-14.5a9.657,9.657,0,1,0-1.909,1.542l11.675,14.5a13.7,13.7,0,0,0-1.559,17.963l-9.431,8.277a11.394,11.394,0,1,0,1.618,1.844l9.435-8.28a13.773,13.773,0,0,0,6.318,3.424,1.227,1.227,0,1,0,.56-2.389,11.271,11.271,0,1,1,5.165,0,1.227,1.227,0,0,0,.56,2.389A13.7,13.7,0,0,0,47.172,53.7l5.868,7.287a5.129,5.129,0,1,0,1.91-1.54l-5.865-7.283a13.714,13.714,0,0,0,4.141-8.647H68.894a7.475,7.475,0,1,0,7.373-8.7ZM13.3,16.907A7.227,7.227,0,1,1,20.523,9.68,7.235,7.235,0,0,1,13.3,16.907ZM11.367,75.949a8.913,8.913,0,1,1,8.913-8.913A8.923,8.923,0,0,1,11.367,75.949ZM57.118,61.42A2.677,2.677,0,1,1,54.441,64.1,2.68,2.68,0,0,1,57.118,61.42ZM76.267,47.315a5.022,5.022,0,1,1,5.022-5.022A5.028,5.028,0,0,1,76.267,47.315Z" transform="translate(83.742 78.402) rotate(180)"/></g><g transform="translate(244.082 154.783)"><text class="d" transform="translate(-0.082 31.217)"><tspan x="0" y="0">Time</tspan></text><text class="e" transform="translate(79.918 31.217)"><tspan x="0" y="0">Lab</tspan></text></g></g></svg>