<svg xmlns="http://www.w3.org/2000/svg" width="40.5" height="40.5" viewBox="0 0 40.5 40.5"><defs><style>.a{fill:#007ab9;}.b{fill:#f1f2f2;}</style></defs><circle class="a" cx="20.25" cy="20.25" r="20.25" transform="translate(0)"/><g transform="translate(9.771 8.653)"><path class="b" d="M49.646,37.2v8.349h-4.84V37.755c0-1.956-.7-3.291-2.451-3.291a2.648,2.648,0,0,0-2.483,1.77,3.313,3.313,0,0,0-.16,1.18v8.131H34.871s.065-13.192,0-14.558h4.841v2.063c-.01.016-.023.032-.032.048h.032v-.048a4.806,4.806,0,0,1,4.362-2.4c3.185,0,5.572,2.081,5.572,6.551ZM29.807,23.969A2.522,2.522,0,1,0,29.744,29h.031a2.523,2.523,0,1,0,.032-5.031ZM27.356,45.545h4.839V30.986H27.356Z" transform="translate(-27.068 -23.969)"/></g></svg>